<svg xmlns="http://www.w3.org/2000/svg" version="1.0" viewBox="0 0 295.5 120"><defs><clipPath id="a"><path d="M0 .1h295v119.8H0Zm0 0"/></clipPath><clipPath id="b"><path d="M5.4 6.3h91.9v92.3h-92Zm0 0"/></clipPath><clipPath id="c"><path d="M51.3 6.3a46 46 0 1 0 0 92 46 46 0 0 0 0-92Zm0 0"/></clipPath></defs><g clip-path="url(#a)"><path fill="#fff" d="M0 .1h295v119.8H0Zm0 0"/></g><g clip-path="url(#b)"><g clip-path="url(#c)"><path fill="#fd0000" d="M5.4 6.3h91.9v91.9h-92Zm0 0"/></g></g><path d="M142.5 72.3c-4.3 0-8-.9-11.1-2.6-3.1-1.8-5.5-4.2-7.1-7.5-1.7-3.2-2.5-7-2.5-11.3 0-3.3.4-6.2 1.4-8.8a17.6 17.6 0 0 1 10.6-11 24.9 24.9 0 0 1 15-.7c2.2.5 4 1.3 5.6 2.3.8.5 1.3 1.1 1.6 1.9.3.7.4 1.4.2 2-.1.8-.5 1.3-1 1.8a3 3 0 0 1-1.8.8c-.7 0-1.5-.2-2.4-.7-1.2-.8-2.5-1.4-4-1.7-1.4-.4-2.8-.6-4.3-.6-2.8 0-5.1.6-7 1.7-2 1.2-3.4 2.8-4.4 5-1 2.2-1.5 4.8-1.5 8 0 3 .5 5.7 1.5 8 1 2.2 2.4 3.8 4.3 5 2 1.1 4.3 1.7 7.1 1.7a17.6 17.6 0 0 0 8.6-2.3 4 4 0 0 1 2.3-.7c.7 0 1.3.3 1.8.8.4.4.8 1 1 1.6 0 .6 0 1.3-.2 2s-.7 1.3-1.4 1.8c-1.6 1.1-3.5 2-5.7 2.6a25 25 0 0 1-6.6 1ZM166.2 72.1c-1.1 0-2-.3-2.7-1-.6-.7-1-1.7-1-3V46.4c0-1.3.4-2.3 1-3 .7-.6 1.6-1 2.7-1 1.2 0 2.1.4 2.8 1 .6.7 1 1.7 1 3v21.7c0 1.3-.4 2.3-1 3-.6.7-1.5 1-2.8 1Zm0-35.2c-1.3 0-2.4-.3-3.2-1A3.7 3.7 0 0 1 162 33c0-1.2.3-2.2 1.1-2.9.8-.6 1.9-1 3.2-1 1.5 0 2.5.4 3.3 1 .7.7 1.1 1.7 1.1 3 0 1.2-.4 2.1-1.1 2.8-.8.7-1.8 1-3.3 1ZM190.9 72.3c-2.6 0-4.7-.4-6.4-1.3-1.8-.9-3-2.1-3.9-3.8a14 14 0 0 1-1.2-6.2V48.4h-3c-1 0-1.7-.2-2.2-.7-.5-.5-.8-1.2-.8-2 0-1 .3-1.7.8-2.1.5-.5 1.2-.7 2.1-.7h3.1v-5.4c0-1.3.3-2.2 1-2.8.6-.6 1.5-1 2.7-1 1.2 0 2.1.4 2.7 1 .7.6 1 1.5 1 2.8v5.4h6.2c1 0 1.7.2 2.2.7.5.4.8 1.1.8 2 0 .9-.3 1.6-.8 2-.5.6-1.2.8-2.2.8h-6.2v12.2c0 1.9.4 3.3 1.2 4.2.9 1 2.2 1.4 4 1.4a8 8 0 0 0 1.8-.1l1.4-.3c.5 0 .8.1 1.2.5.3.3.4 1 .4 2 0 .8-.1 1.5-.4 2.1-.2.6-.7 1-1.3 1.3a16.1 16.1 0 0 1-4.2.6ZM209.8 72.3c-2 0-4-.4-5.6-1.2-1.6-.8-2.9-1.9-3.8-3.3-1-1.3-1.4-3-1.4-4.6 0-2.2.6-3.8 1.7-5a10 10 0 0 1 5.3-2.8c2.5-.5 5.8-.8 10-.8h3v4.3h-3c-2.4 0-4.3 0-5.8.3a6 6 0 0 0-3 1.2c-.7.6-1 1.4-1 2.4 0 1.3.5 2.4 1.4 3.2.9.8 2.2 1.2 3.8 1.2a6.5 6.5 0 0 0 5.8-3.4c.6-1 .9-2.3.9-3.7v-6.7c0-2-.4-3.4-1.3-4.3-.9-.9-2.3-1.3-4.4-1.3a17.8 17.8 0 0 0-7.8 1.8c-.8.4-1.4.5-2 .3-.6-.1-1-.4-1.3-1a3 3 0 0 1-.5-1.6c0-.6.1-1.1.5-1.7.3-.6.8-1 1.6-1.3a26.4 26.4 0 0 1 9.8-2c2.8 0 5.1.4 7 1.3 1.8.8 3.2 2.1 4 3.9 1 1.7 1.4 4 1.4 6.7v14.2c0 1.2-.3 2.2-.9 2.8-.6.7-1.4 1-2.5 1s-2-.3-2.6-1c-.6-.6-.9-1.6-.9-2.8v-2.8h.5a8.1 8.1 0 0 1-4.7 5.9 10 10 0 0 1-4.2.8ZM242.5 72.3c-3.3 0-5.8-1-7.4-2.8-1.7-1.9-2.5-4.6-2.5-8.2v-28c0-1.2.3-2.1 1-2.7.6-.7 1.5-1 2.7-1 1.2 0 2 .3 2.7 1 .7.6 1 1.5 1 2.7V61c0 1.8.4 3.2 1.2 4 .7.9 1.8 1.3 3.2 1.3a20.5 20.5 0 0 0 1.7 0c.6-.2 1 0 1.2.4.2.3.3 1 .3 2.2 0 1-.2 1.8-.6 2.3-.4.6-1 1-2 1l-1.2.2h-1.3ZM265.7 72.3c-3.3 0-6-.6-8.5-1.8a13 13 0 0 1-5.4-5.2c-1.3-2.3-2-5-2-8s.7-5.6 2-7.8c1.2-2.3 2.9-4 5-5.3 2.2-1.3 4.7-2 7.5-2 2 0 4 .4 5.6 1a12.6 12.6 0 0 1 6.8 7.5c.6 1.8 1 3.8 1 6a2 2 0 0 1-.8 1.7c-.5.4-1.2.6-2.1.6h-19v-4.3h16.6l-1 .9c0-1.8-.2-3.3-.7-4.5a6.1 6.1 0 0 0-2.3-2.8c-1-.7-2.3-1-3.8-1-1.6 0-3 .4-4.2 1.1-1.2.8-2 1.9-2.7 3.3-.6 1.4-.9 3-.9 5v.4c0 3.2.8 5.6 2.3 7.2 1.5 1.6 3.8 2.4 6.7 2.4 1 0 2.2-.1 3.5-.4 1.2-.2 2.5-.7 3.6-1.3.8-.5 1.5-.7 2.2-.6.6 0 1.1.3 1.5.7.4.4.6.8.7 1.4 0 .6 0 1.1-.4 1.7-.3.6-.8 1.1-1.5 1.6-1.3.8-3 1.5-4.7 1.9-1.8.4-3.5.6-5 .6Zm0 0"/><path fill="#fff" d="m68.3 74.6-1.4.7A46 46 0 0 1 54 77a28.5 28.5 0 0 1-24.6-15.6 23.4 23.4 0 0 1 0-20A28.4 28.4 0 0 1 54 25.7c3.6 0 6.4.2 8.5.6a22 22 0 0 1 5.8 1.8l-2.4 11.1-1.3-.6a23.7 23.7 0 0 0-8.8-1.8c-2.9 0-5.3.5-7.4 1.4a14.7 14.7 0 0 0-8 8.1 14.6 14.6 0 0 0 0 10.1 14 14 0 0 0 8 8.2c2 .9 4.5 1.3 7.4 1.3a20.5 20.5 0 0 0 8.8-1.8l1.3-.6Zm0 0"/></svg>