<svg version="1.1" id="Layer_1" xmlns="http://www.w3.org/2000/svg" xmlns:xlink="http://www.w3.org/1999/xlink" x="0px" y="0px"
	 width="100%" viewBox="0 0 1024 1024" enable-background="new 0 0 1024 1024" xml:space="preserve">
<path fill="#000000" opacity="1.000000" stroke="none" 
	d="
M367.450623,395.550171 
	C384.892395,413.013458 402.001648,430.310699 419.350861,447.363800 
	C422.832642,450.786163 423.329529,452.854523 419.535767,456.513367 
	C406.824097,468.773071 394.399261,481.335052 382.054840,493.967224 
	C379.013062,497.079865 377.037170,497.125336 373.929382,494.008148 
	C323.456970,443.382416 272.900238,392.840668 222.297424,342.345184 
	C219.483749,339.537476 219.054367,337.544128 222.092560,334.512909 
	C263.377533,293.322845 304.566956,252.036987 345.785156,210.779984 
	C357.090637,199.463821 368.468506,188.219177 379.691010,176.821457 
	C382.637299,173.829193 384.675568,173.533798 387.862335,176.816711 
	C400.280151,189.609100 412.933685,202.175949 425.659729,214.663437 
	C428.635162,217.583115 428.570099,219.489014 425.612457,222.423889 
	C399.236023,248.597397 372.989471,274.901825 346.719330,301.182343 
	C345.682343,302.219727 344.349579,303.060486 343.955688,304.739288 
	C345.301575,306.546112 347.279114,305.788513 348.956543,305.789520 
	C406.115021,305.824371 463.273712,305.732239 520.432007,305.839294 
	C546.208862,305.887573 571.429443,310.188141 596.047241,317.583344 
	C633.010620,328.687134 666.389038,346.609741 695.842651,371.665466 
	C726.458374,397.709869 750.477539,428.763306 767.706238,465.166290 
	C777.291321,485.418976 784.593811,506.406494 788.863525,528.312500 
	C793.582520,552.523743 795.196899,576.985596 793.535889,601.744873 
	C792.406372,618.581238 789.961670,635.095764 786.080200,651.440002 
	C782.113708,668.142395 776.237122,684.218201 769.101624,699.807190 
	C757.942871,724.185791 743.346619,746.366150 725.757385,766.594360 
	C703.095642,792.656006 676.355713,813.543335 645.905029,829.758667 
	C624.944092,840.920593 602.864014,849.188232 579.770691,854.527832 
	C560.464539,858.991699 540.898376,861.463623 520.964478,861.412720 
	C437.810059,861.200439 354.654938,861.288025 271.500061,861.278870 
	C262.851379,861.277893 262.852112,861.318420 262.853638,852.763672 
	C262.856598,836.265991 262.987366,819.766724 262.777985,803.271729 
	C262.719635,798.676147 264.446747,796.909424 268.868317,797.005798 
	C274.197937,797.121948 279.532715,796.989868 284.865234,796.988831 
	C363.187531,796.972900 441.510681,797.174438 519.831726,796.852234 
	C555.775818,796.704346 589.551270,787.340027 620.803711,769.556702 
	C665.296265,744.239319 696.893066,707.611694 715.442932,659.878540 
	C722.144775,642.633301 726.447388,624.806396 728.029175,606.275574 
	C728.707214,598.332153 729.962830,590.459717 729.747803,582.438232 
	C728.307190,528.692871 710.849426,481.210114 674.651917,441.011719 
	C646.227478,409.445526 611.380798,388.362213 570.361084,377.613586 
	C554.092712,373.350647 537.541260,370.967865 520.584656,371.034607 
	C464.093567,371.256897 407.601013,371.107178 351.109009,371.130890 
	C349.174469,371.131714 347.138580,370.620026 344.354553,372.312775 
	C352.111267,380.116119 359.656921,387.707153 367.450623,395.550171 
z"/>
</svg>